<svg xmlns="http://www.w3.org/2000/svg" viewBox="0 0 40 40"><linearGradient id="a" gradientUnits="userSpaceOnUse" x1="-92.583" y1="-639.178" x2="-55.291" y2="-639.178" gradientTransform="rotate(90 -356.568 -262.61)"><stop offset="0" stop-color="#fef200"/><stop offset="1" stop-color="#f3ba2f"/></linearGradient><path d="M37 26.3V13.7c0-2.1-1.1-4.1-3-5.2L23 2.2c-1.9-1.1-4.1-1.1-6 0L6 8.5c-1.9 1.1-3 3.1-3 5.2v12.6c0 2.1 1.1 4.1 3 5.2l11 6.3c1.9 1.1 4.1 1.1 6 0l11-6.3c1.8-1.1 3-3 3-5.2z" fill="url(#a)"/><path d="M13.9 12L20 8.4l6.1 3.5-2.3 1.3-3.8-2.1-3.9 2.2-2.2-1.3zm12.2 4.4l-2.3-1.3-3.8 2.3-3.9-2.2-2.3 1.3v2.6l3.9 2.2v4.5l2.3 1.3 2.3-1.3v-4.5l3.9-2.2v-2.7zm0 7.1v-2.6l-2.3 1.3v2.6l2.3-1.3zm1.6 1l-3.9 2.2v2.6l6.1-3.5v-7.1L27.7 20v4.5zm-2.2-10.3l2.3 1.3v2.6l2.3-1.3v-2.6l-2.3-1.3-2.3 1.3zm-7.8 13.4v2.6l2.3 1.3 2.3-1.3v-2.6L20 28.9l-2.3-1.3zm-3.8-4.1l2.3 1.3v-2.6l-2.3-1.3v2.6zm3.8-9.3l2.3 1.3 2.3-1.3-2.3-1.3-2.3 1.3zm-5.4 1.3l2.3-1.3-2.3-1.3-2.3 1.3v2.6l2.3 1.3v-2.6zm0 4.5L10 18.7v7.1l6.1 3.5v-2.6l-3.9-2.2V20z" fill="#fff"/></svg>