<svg width="96" height="96" viewBox="0 0 96 96" fill="none" xmlns="http://www.w3.org/2000/svg">
<g filter="url(#filter0_d)">
<rect x="16" y="8" width="64" height="64" rx="8" fill="#082147"/>
<path d="M45.3337 41.3332C45.07 41.3332 44.8122 41.4114 44.5929 41.5579C44.3736 41.7044 44.2027 41.9126 44.1018 42.1563C44.0009 42.3999 43.9745 42.668 44.0259 42.9266C44.0774 43.1853 44.2044 43.4228 44.3908 43.6093C44.5773 43.7958 44.8149 43.9228 45.0735 43.9742C45.3322 44.0257 45.6003 43.9993 45.8439 43.8983C46.0875 43.7974 46.2958 43.6265 46.4423 43.4073C46.5888 43.188 46.667 42.9302 46.667 42.6665C46.667 42.3129 46.5265 41.9737 46.2765 41.7237C46.0264 41.4736 45.6873 41.3332 45.3337 41.3332ZM45.3337 35.9998C45.07 35.9998 44.8122 36.078 44.5929 36.2245C44.3736 36.3711 44.2027 36.5793 44.1018 36.8229C44.0009 37.0666 43.9745 37.3346 44.0259 37.5933C44.0774 37.8519 44.2044 38.0895 44.3908 38.276C44.5773 38.4624 44.8149 38.5894 45.0735 38.6409C45.3322 38.6923 45.6003 38.6659 45.8439 38.565C46.0875 38.4641 46.2958 38.2932 46.4423 38.0739C46.5888 37.8547 46.667 37.5969 46.667 37.3332C46.667 36.9795 46.5265 36.6404 46.2765 36.3904C46.0264 36.1403 45.6873 35.9998 45.3337 35.9998ZM50.667 35.9998C50.4033 35.9998 50.1455 36.078 49.9262 36.2245C49.707 36.3711 49.5361 36.5793 49.4352 36.8229C49.3342 37.0666 49.3078 37.3346 49.3593 37.5933C49.4107 37.8519 49.5377 38.0895 49.7242 38.276C49.9107 38.4624 50.1482 38.5894 50.4069 38.6409C50.6655 38.6923 50.9336 38.6659 51.1772 38.565C51.4209 38.4641 51.6291 38.2932 51.7756 38.0739C51.9221 37.8547 52.0003 37.5969 52.0003 37.3332C52.0003 36.9795 51.8598 36.6404 51.6098 36.3904C51.3598 36.1403 51.0206 35.9998 50.667 35.9998ZM60.0003 41.3332C60.3539 41.3332 60.6931 41.1927 60.9431 40.9426C61.1932 40.6926 61.3337 40.3535 61.3337 39.9998C61.3337 39.6462 61.1932 39.3071 60.9431 39.057C60.6931 38.807 60.3539 38.6665 60.0003 38.6665H57.3337V35.9998H60.0003C60.3539 35.9998 60.6931 35.8594 60.9431 35.6093C61.1932 35.3593 61.3337 35.0201 61.3337 34.6665C61.3337 34.3129 61.1932 33.9737 60.9431 33.7237C60.6931 33.4736 60.3539 33.3332 60.0003 33.3332H57.0937C56.8946 32.774 56.5735 32.2661 56.1538 31.8464C55.7341 31.4266 55.2262 31.1056 54.667 30.9065V27.9998C54.667 27.6462 54.5265 27.3071 54.2765 27.057C54.0264 26.807 53.6873 26.6665 53.3337 26.6665C52.98 26.6665 52.6409 26.807 52.3908 27.057C52.1408 27.3071 52.0003 27.6462 52.0003 27.9998V30.6665H49.3337V27.9998C49.3337 27.6462 49.1932 27.3071 48.9431 27.057C48.6931 26.807 48.3539 26.6665 48.0003 26.6665C47.6467 26.6665 47.3076 26.807 47.0575 27.057C46.8075 27.3071 46.667 27.6462 46.667 27.9998V30.6665H44.0003V27.9998C44.0003 27.6462 43.8598 27.3071 43.6098 27.057C43.3598 26.807 43.0206 26.6665 42.667 26.6665C42.3134 26.6665 41.9742 26.807 41.7242 27.057C41.4741 27.3071 41.3337 27.6462 41.3337 27.9998V30.9065C40.7745 31.1056 40.2666 31.4266 39.8469 31.8464C39.4271 32.2661 39.1061 32.774 38.907 33.3332H36.0003C35.6467 33.3332 35.3076 33.4736 35.0575 33.7237C34.8075 33.9737 34.667 34.3129 34.667 34.6665C34.667 35.0201 34.8075 35.3593 35.0575 35.6093C35.3076 35.8594 35.6467 35.9998 36.0003 35.9998H38.667V38.6665H36.0003C35.6467 38.6665 35.3076 38.807 35.0575 39.057C34.8075 39.3071 34.667 39.6462 34.667 39.9998C34.667 40.3535 34.8075 40.6926 35.0575 40.9426C35.3076 41.1927 35.6467 41.3332 36.0003 41.3332H38.667V43.9998H36.0003C35.6467 43.9998 35.3076 44.1403 35.0575 44.3904C34.8075 44.6404 34.667 44.9795 34.667 45.3332C34.667 45.6868 34.8075 46.0259 35.0575 46.276C35.3076 46.526 35.6467 46.6665 36.0003 46.6665H38.907C39.1061 47.2257 39.4271 47.7336 39.8469 48.1533C40.2666 48.573 40.7745 48.8941 41.3337 49.0932V51.9998C41.3337 52.3535 41.4741 52.6926 41.7242 52.9426C41.9742 53.1927 42.3134 53.3332 42.667 53.3332C43.0206 53.3332 43.3598 53.1927 43.6098 52.9426C43.8598 52.6926 44.0003 52.3535 44.0003 51.9998V49.3332H46.667V51.9998C46.667 52.3535 46.8075 52.6926 47.0575 52.9426C47.3076 53.1927 47.6467 53.3332 48.0003 53.3332C48.3539 53.3332 48.6931 53.1927 48.9431 52.9426C49.1932 52.6926 49.3337 52.3535 49.3337 51.9998V49.3332H52.0003V51.9998C52.0003 52.3535 52.1408 52.6926 52.3908 52.9426C52.6409 53.1927 52.98 53.3332 53.3337 53.3332C53.6873 53.3332 54.0264 53.1927 54.2765 52.9426C54.5265 52.6926 54.667 52.3535 54.667 51.9998V49.0932C55.2262 48.8941 55.7341 48.573 56.1538 48.1533C56.5735 47.7336 56.8946 47.2257 57.0937 46.6665H60.0003C60.3539 46.6665 60.6931 46.526 60.9431 46.276C61.1932 46.0259 61.3337 45.6868 61.3337 45.3332C61.3337 44.9795 61.1932 44.6404 60.9431 44.3904C60.6931 44.1403 60.3539 43.9998 60.0003 43.9998H57.3337V41.3332H60.0003ZM54.667 45.3332C54.667 45.6868 54.5265 46.0259 54.2765 46.276C54.0264 46.526 53.6873 46.6665 53.3337 46.6665H42.667C42.3134 46.6665 41.9742 46.526 41.7242 46.276C41.4741 46.0259 41.3337 45.6868 41.3337 45.3332V34.6665C41.3337 34.3129 41.4741 33.9737 41.7242 33.7237C41.9742 33.4736 42.3134 33.3332 42.667 33.3332H53.3337C53.6873 33.3332 54.0264 33.4736 54.2765 33.7237C54.5265 33.9737 54.667 34.3129 54.667 34.6665V45.3332ZM50.667 41.3332C50.4033 41.3332 50.1455 41.4114 49.9262 41.5579C49.707 41.7044 49.5361 41.9126 49.4352 42.1563C49.3342 42.3999 49.3078 42.668 49.3593 42.9266C49.4107 43.1853 49.5377 43.4228 49.7242 43.6093C49.9107 43.7958 50.1482 43.9228 50.4069 43.9742C50.6655 44.0257 50.9336 43.9993 51.1772 43.8983C51.4209 43.7974 51.6291 43.6265 51.7756 43.4073C51.9221 43.188 52.0003 42.9302 52.0003 42.6665C52.0003 42.3129 51.8598 41.9737 51.6098 41.7237C51.3598 41.4736 51.0206 41.3332 50.667 41.3332Z" fill="url(#paint0_linear)"/>
</g>
<defs>
<filter id="filter0_d" x="0" y="0" width="96" height="96" filterUnits="userSpaceOnUse" color-interpolation-filters="sRGB">
<feFlood flood-opacity="0" result="BackgroundImageFix"/>
<feColorMatrix in="SourceAlpha" type="matrix" values="0 0 0 0 0 0 0 0 0 0 0 0 0 0 0 0 0 0 127 0"/>
<feOffset dy="8"/>
<feGaussianBlur stdDeviation="8"/>
<feColorMatrix type="matrix" values="0 0 0 0 0.027451 0 0 0 0 0.133333 0 0 0 0 0.290196 0 0 0 0.15 0"/>
<feBlend mode="normal" in2="BackgroundImageFix" result="effect1_dropShadow"/>
<feBlend mode="normal" in="SourceGraphic" in2="effect1_dropShadow" result="shape"/>
</filter>
<linearGradient id="paint0_linear" x1="48.0003" y1="26.6665" x2="48.0003" y2="53.3332" gradientUnits="userSpaceOnUse">
<stop stop-color="#23A2FC"/>
<stop offset="1" stop-color="#04CCF8"/>
</linearGradient>
</defs>
</svg>
