<svg width="96" height="96" viewBox="0 0 96 96" fill="none" xmlns="http://www.w3.org/2000/svg">
<g filter="url(#filter0_d)">
<rect x="16" y="8" width="64" height="64" rx="8" fill="#07224A"/>
<path d="M51.146 42.9737C50.2547 43.6923 49.1443 44.0842 47.9994 44.0842C46.8544 44.0842 45.744 43.6923 44.8527 42.9737C44.5804 42.7473 44.2294 42.6385 43.8768 42.671C43.5242 42.7035 43.199 42.8747 42.9727 43.147C42.7464 43.4193 42.6375 43.7703 42.67 44.1229C42.7025 44.4755 42.8737 44.8007 43.146 45.027C44.5078 46.1638 46.2254 46.7865 47.9994 46.7865C49.7733 46.7865 51.4909 46.1638 52.8527 45.027C53.125 44.8007 53.2962 44.4755 53.3287 44.1229C53.3612 43.7703 53.2523 43.4193 53.026 43.147C52.914 43.0122 52.7764 42.9007 52.6213 42.8191C52.4662 42.7374 52.2965 42.6871 52.1219 42.671C51.7694 42.6385 51.4183 42.7473 51.146 42.9737ZM44.2794 38.0537C44.5292 38.302 44.8671 38.4414 45.2194 38.4414C45.5716 38.4414 45.9095 38.302 46.1594 38.0537C46.4077 37.8038 46.5471 37.4659 46.5471 37.1137C46.5471 36.7614 46.4077 36.4235 46.1594 36.1737C45.3963 35.4496 44.3846 35.046 43.3327 35.046C42.2808 35.046 41.2691 35.4496 40.506 36.1737C40.3664 36.2932 40.2531 36.4403 40.1731 36.6057C40.093 36.7711 40.048 36.9513 40.041 37.1349C40.0339 37.3185 40.0648 37.5017 40.1318 37.6728C40.1989 37.8439 40.3005 37.9993 40.4305 38.1292C40.5604 38.2591 40.7158 38.3608 40.8869 38.4278C41.058 38.4949 41.2411 38.5258 41.4248 38.5187C41.6084 38.5116 41.7886 38.4667 41.954 38.3866C42.1194 38.3066 42.2665 38.1932 42.386 38.0537C42.51 37.9287 42.6574 37.8295 42.8199 37.7618C42.9824 37.6941 43.1567 37.6593 43.3327 37.6593C43.5087 37.6593 43.683 37.6941 43.8455 37.7618C44.0079 37.8295 44.1554 37.9287 44.2794 38.0537ZM55.4927 36.1737C54.7296 35.4496 53.7179 35.046 52.666 35.046C51.6142 35.046 50.6024 35.4496 49.8394 36.1737C49.6209 36.4287 49.5068 36.7568 49.5197 37.0924C49.5327 37.428 49.6718 37.7463 49.9093 37.9837C50.1467 38.2212 50.465 38.3603 50.8006 38.3733C51.1362 38.3862 51.4643 38.2721 51.7194 38.0537C51.8433 37.9287 51.9908 37.8295 52.1532 37.7618C52.3157 37.6941 52.49 37.6593 52.666 37.6593C52.842 37.6593 53.0163 37.6941 53.1788 37.7618C53.3413 37.8295 53.4887 37.9287 53.6127 38.0537C53.8625 38.302 54.2004 38.4414 54.5527 38.4414C54.9049 38.4414 55.2429 38.302 55.4927 38.0537C55.741 37.8038 55.8804 37.4659 55.8804 37.1137C55.8804 36.7614 55.741 36.4235 55.4927 36.1737ZM47.9994 26.667C45.3623 26.667 42.7844 27.449 40.5918 28.9141C38.3991 30.3791 36.6901 32.4615 35.681 34.8979C34.6718 37.3342 34.4077 40.0151 34.9222 42.6015C35.4367 45.1879 36.7066 47.5637 38.5713 49.4284C40.436 51.2931 42.8117 52.563 45.3981 53.0775C47.9846 53.5919 50.6655 53.3279 53.1018 52.3187C55.5381 51.3095 57.6205 49.6006 59.0856 47.4079C60.5507 45.2153 61.3327 42.6374 61.3327 40.0003C61.3327 38.2494 60.9878 36.5156 60.3177 34.8979C59.6477 33.2802 58.6656 31.8103 57.4274 30.5722C56.1893 29.3341 54.7195 28.352 53.1018 27.6819C51.4841 27.0119 49.7503 26.667 47.9994 26.667ZM47.9994 50.667C45.8897 50.667 43.8274 50.0414 42.0733 48.8693C40.3191 47.6973 38.952 46.0314 38.1446 44.0823C37.3373 42.1332 37.1261 39.9885 37.5376 37.9194C37.9492 35.8502 38.9651 33.9496 40.4569 32.4579C41.9486 30.9661 43.8493 29.9502 45.9184 29.5386C47.9875 29.127 50.1322 29.3383 52.0813 30.1456C54.0304 30.9529 55.6963 32.3201 56.8684 34.0742C58.0404 35.8284 58.666 37.8907 58.666 40.0003C58.666 42.8293 57.5422 45.5424 55.5418 47.5428C53.5414 49.5432 50.8283 50.667 47.9994 50.667Z" fill="url(#paint0_linear)"/>
</g>
<defs>
<filter id="filter0_d" x="0" y="0" width="96" height="96" filterUnits="userSpaceOnUse" color-interpolation-filters="sRGB">
<feFlood flood-opacity="0" result="BackgroundImageFix"/>
<feColorMatrix in="SourceAlpha" type="matrix" values="0 0 0 0 0 0 0 0 0 0 0 0 0 0 0 0 0 0 127 0"/>
<feOffset dy="8"/>
<feGaussianBlur stdDeviation="8"/>
<feColorMatrix type="matrix" values="0 0 0 0 0.027451 0 0 0 0 0.133333 0 0 0 0 0.290196 0 0 0 0.15 0"/>
<feBlend mode="normal" in2="BackgroundImageFix" result="effect1_dropShadow"/>
<feBlend mode="normal" in="SourceGraphic" in2="effect1_dropShadow" result="shape"/>
</filter>
<linearGradient id="paint0_linear" x1="47.9993" y1="26.667" x2="47.9993" y2="53.3337" gradientUnits="userSpaceOnUse">
<stop stop-color="#23A2FC"/>
<stop offset="1" stop-color="#04CCF8"/>
</linearGradient>
</defs>
</svg>
