<svg width="96" height="96" viewBox="0 0 96 96" fill="none" xmlns="http://www.w3.org/2000/svg">
<g filter="url(#filter0_d)">
<rect x="16" y="8" width="64" height="64" rx="8" fill="#082147"/>
<path d="M58.174 28.8655C58.0191 28.7401 57.8381 28.6511 57.6442 28.605C57.4504 28.5588 57.2487 28.5567 57.054 28.5987C55.6292 28.8974 54.1584 28.9012 52.7322 28.6099C51.3059 28.3186 49.9543 27.7384 48.7606 26.9049C48.5375 26.75 48.2723 26.667 48.0007 26.667C47.729 26.667 47.4638 26.75 47.2407 26.9049C46.047 27.7384 44.6954 28.3186 43.2691 28.6099C41.8429 28.9012 40.3721 28.8974 38.9473 28.5987C38.7526 28.5567 38.5509 28.5588 38.3571 28.605C38.1632 28.6511 37.9822 28.7401 37.8273 28.8655C37.6726 28.991 37.548 29.1496 37.4626 29.3297C37.3773 29.5097 37.3333 29.7066 37.334 29.9058V39.8423C37.3328 41.7545 37.7884 43.6394 38.6627 45.3399C39.5371 47.0405 40.8049 48.5074 42.3607 49.6187L47.2273 53.0864C47.4531 53.2472 47.7234 53.3337 48.0007 53.3337C48.2779 53.3337 48.5482 53.2472 48.774 53.0864L53.6406 49.6187C55.1964 48.5074 56.4642 47.0405 57.3386 45.3399C58.2129 43.6394 58.6685 41.7545 58.6673 39.8423V29.9058C58.668 29.7066 58.624 29.5097 58.5387 29.3297C58.4533 29.1496 58.3287 28.991 58.174 28.8655ZM56.0006 39.8423C56.0017 41.3291 55.6477 42.7946 54.9682 44.117C54.2887 45.4393 53.3033 46.5802 52.094 47.4446L48.0007 50.3656L43.9073 47.4446C42.698 46.5802 41.7126 45.4393 41.0331 44.117C40.3536 42.7946 39.9996 41.3291 40.0007 39.8423V31.4396C42.7959 31.6789 45.5954 31.0302 48.0007 29.5857C50.4059 31.0302 53.2054 31.6789 56.0006 31.4396V39.8423Z" fill="url(#paint0_linear)"/>
</g>
<defs>
<filter id="filter0_d" x="0" y="0" width="96" height="96" filterUnits="userSpaceOnUse" color-interpolation-filters="sRGB">
<feFlood flood-opacity="0" result="BackgroundImageFix"/>
<feColorMatrix in="SourceAlpha" type="matrix" values="0 0 0 0 0 0 0 0 0 0 0 0 0 0 0 0 0 0 127 0"/>
<feOffset dy="8"/>
<feGaussianBlur stdDeviation="8"/>
<feColorMatrix type="matrix" values="0 0 0 0 0.027451 0 0 0 0 0.133333 0 0 0 0 0.290196 0 0 0 0.15 0"/>
<feBlend mode="normal" in2="BackgroundImageFix" result="effect1_dropShadow"/>
<feBlend mode="normal" in="SourceGraphic" in2="effect1_dropShadow" result="shape"/>
</filter>
<linearGradient id="paint0_linear" x1="48.0007" y1="26.667" x2="48.0007" y2="53.3337" gradientUnits="userSpaceOnUse">
<stop stop-color="#23A2FC"/>
<stop offset="1" stop-color="#04CCF8"/>
</linearGradient>
</defs>
</svg>
