<svg width="96" height="96" viewBox="0 0 96 96" fill="none" xmlns="http://www.w3.org/2000/svg">
<g filter="url(#filter0_d)">
<rect x="16" y="8" width="64" height="64" rx="8" fill="#082147"/>
<path d="M60.6267 30.2719L54.646 26.8463C54.4435 26.7288 54.2139 26.667 53.98 26.667C53.7462 26.667 53.5165 26.7288 53.314 26.8463L47.986 29.8973L42.658 26.8463C42.4555 26.7288 42.2258 26.667 41.992 26.667C41.7582 26.667 41.5285 26.7288 41.326 26.8463L35.3453 30.2719C35.1396 30.3881 34.9683 30.5572 34.8489 30.7617C34.7295 30.9663 34.6664 31.199 34.666 31.4361V38.2875C34.6664 38.5246 34.7295 38.7574 34.8489 38.9619C34.9683 39.1665 35.1396 39.3355 35.3453 39.4517L40.6733 42.4893V48.5645C40.6737 48.8016 40.7369 49.0344 40.8562 49.2389C40.9756 49.4435 41.1469 49.6125 41.3527 49.7287L47.3467 53.1544C47.5492 53.2718 47.7789 53.3337 48.0127 53.3337C48.2465 53.3337 48.4762 53.2718 48.6787 53.1544L54.646 49.7287C54.8518 49.6125 55.0231 49.4435 55.1425 49.2389C55.2618 49.0344 55.3249 48.8016 55.3254 48.5645V42.4893L60.6534 39.4517C60.8591 39.3355 61.0304 39.1665 61.1498 38.9619C61.2692 38.7574 61.3323 38.5246 61.3327 38.2875V31.4361C61.3296 31.1963 61.2625 30.9618 61.1383 30.757C61.0141 30.5522 60.8374 30.3846 60.6267 30.2719ZM37.33 37.5114V32.1587L41.992 29.4824L46.654 32.1587V37.5114L41.992 40.1877L37.33 37.5114ZM52.648 47.7884L47.986 50.4647L43.324 47.7884V42.4358L47.986 39.7595L52.648 42.4358V47.7884ZM58.642 37.5114L53.98 40.1877L49.318 37.5114V32.1587L53.98 29.4824L58.642 32.1587V37.5114Z" fill="url(#paint0_linear)"/>
</g>
<defs>
<filter id="filter0_d" x="0" y="0" width="96" height="96" filterUnits="userSpaceOnUse" color-interpolation-filters="sRGB">
<feFlood flood-opacity="0" result="BackgroundImageFix"/>
<feColorMatrix in="SourceAlpha" type="matrix" values="0 0 0 0 0 0 0 0 0 0 0 0 0 0 0 0 0 0 127 0"/>
<feOffset dy="8"/>
<feGaussianBlur stdDeviation="8"/>
<feColorMatrix type="matrix" values="0 0 0 0 0.027451 0 0 0 0 0.133333 0 0 0 0 0.290196 0 0 0 0.15 0"/>
<feBlend mode="normal" in2="BackgroundImageFix" result="effect1_dropShadow"/>
<feBlend mode="normal" in="SourceGraphic" in2="effect1_dropShadow" result="shape"/>
</filter>
<linearGradient id="paint0_linear" x1="47.9993" y1="26.667" x2="47.9993" y2="53.3337" gradientUnits="userSpaceOnUse">
<stop stop-color="#23A2FC"/>
<stop offset="1" stop-color="#04CCF8"/>
</linearGradient>
</defs>
</svg>
