<?xml version="1.0" encoding="utf-8"?>
<!-- Generator: Adobe Illustrator 22.0.0, SVG Export Plug-In . SVG Version: 6.00 Build 0)  -->
<svg version="1.1" id="Layer_1" xmlns="http://www.w3.org/2000/svg" xmlns:xlink="http://www.w3.org/1999/xlink" x="0px" y="0px"
	 viewBox="0 0 96 96" style="enable-background:new 0 0 96 96;" xml:space="preserve">
<style type="text/css">
	.st0{fill:#082147;}
	.st1{fill:#36ACFF;}
</style>
<g>
	<path class="st0" d="M24.5,8h47.5c4.4,0,7.9,3.6,7.9,8v48c0,4.4-3.5,8-7.9,8H24.5c-4.4,0-7.9-3.6-7.9-8V16C16.6,11.6,20.2,8,24.5,8
		z"/>
	<path class="st1" d="M41.8,43.2c-0.2,0-0.3,0-0.5,0.1c-0.2,0.1-0.3,0.2-0.4,0.3s-0.2,0.3-0.3,0.4c-0.1,0.2-0.1,0.3-0.1,0.5v2.3
		C38.9,44.9,38,42.5,38,40c0-0.4,0-0.8,0.1-1.1c0-0.2,0-0.3,0-0.5c0-0.2-0.1-0.3-0.2-0.4s-0.2-0.2-0.4-0.3c-0.1-0.1-0.3-0.1-0.5-0.2
		s-0.3,0-0.5,0c-0.2,0-0.3,0.1-0.4,0.2c-0.1,0.1-0.2,0.2-0.3,0.4c-0.1,0.1-0.1,0.3-0.1,0.5c-0.1,0.5-0.1,1-0.1,1.4
		c0,3.1,1.1,6,3,8.4h-1.8c-0.3,0-0.6,0.1-0.9,0.4c-0.2,0.2-0.4,0.6-0.4,0.9s0.1,0.7,0.4,0.9c0.2,0.2,0.5,0.4,0.9,0.4h5
		c0.2,0,0.4-0.1,0.6-0.1c0.2-0.1,0.3-0.2,0.4-0.4c0,0,0,0,0-0.1c0,0,0,0,0,0c0.1-0.1,0.1-0.2,0.1-0.3c0-0.1,0-0.1,0-0.2
		c0,0,0-0.1,0-0.1v-5.1c0-0.2,0-0.3-0.1-0.5c-0.1-0.2-0.2-0.3-0.3-0.4c-0.1-0.1-0.3-0.2-0.4-0.3C42.1,43.3,41.9,43.2,41.8,43.2z
		 M43.6,32.3h-2.2c1.8-1.7,4.1-2.6,6.6-2.6c0.4,0,0.7,0,1.1,0.1c0.2,0,0.3,0,0.5,0c0.2,0,0.3-0.1,0.4-0.2c0.1-0.1,0.2-0.2,0.3-0.4
		c0.1-0.1,0.1-0.3,0.2-0.5c0-0.2,0-0.3,0-0.5c0-0.2-0.1-0.3-0.2-0.4c-0.1-0.1-0.2-0.2-0.4-0.3c-0.1-0.1-0.3-0.1-0.5-0.2
		c-0.5-0.1-0.9-0.1-1.4-0.1c-3,0-5.8,1.1-8.1,3.1v-1.8c0-0.3-0.1-0.7-0.4-0.9c-0.2-0.2-0.5-0.4-0.9-0.4c-0.3,0-0.6,0.1-0.9,0.4
		c-0.2,0.2-0.4,0.6-0.4,0.9v5.1c0,0.1,0,0.2,0,0.3l0,0c0,0.2,0.1,0.3,0.2,0.4l0,0c0.1,0.1,0.2,0.2,0.3,0.3c0,0,0,0,0,0
		c0,0,0,0,0.1,0c0.1,0,0.1,0.1,0.2,0.1c0.1,0,0.2,0.1,0.3,0.1c0,0,0,0,0.1,0h5c0.3,0,0.6-0.1,0.9-0.4c0.2-0.2,0.4-0.6,0.4-0.9
		c0-0.3-0.1-0.7-0.4-0.9C44.3,32.4,44,32.3,43.6,32.3L43.6,32.3z M58.5,46.2c0-0.2-0.1-0.3-0.2-0.4l0,0c-0.1-0.1-0.2-0.2-0.3-0.3
		c0,0,0,0,0,0c0,0,0,0,0,0c-0.2-0.1-0.3-0.1-0.5-0.2c0,0-0.1,0-0.1,0h-5c-0.3,0-0.6,0.1-0.9,0.4c-0.2,0.2-0.4,0.6-0.4,0.9
		c0,0.3,0.1,0.7,0.4,0.9c0.2,0.2,0.5,0.4,0.9,0.4h2.2c-1.8,1.7-4.1,2.6-6.6,2.6c-0.4,0-0.7,0-1.1-0.1c-0.3,0-0.7,0.1-0.9,0.3
		c-0.3,0.2-0.4,0.5-0.5,0.9c0,0.3,0.1,0.7,0.3,0.9c0.2,0.3,0.5,0.4,0.8,0.5c0.5,0.1,0.9,0.1,1.4,0.1c3,0,5.8-1.1,8.1-3.1v1.8
		c0,0.3,0.1,0.7,0.4,0.9c0.2,0.2,0.5,0.4,0.9,0.4s0.6-0.1,0.9-0.4c0.2-0.2,0.4-0.6,0.4-0.9v-5.1C58.5,46.4,58.5,46.3,58.5,46.2
		L58.5,46.2z M59.1,31.6c0.3,0,0.6-0.1,0.9-0.4c0.2-0.2,0.4-0.6,0.4-0.9c0-0.3-0.1-0.7-0.4-0.9c-0.2-0.2-0.5-0.4-0.9-0.4h-5
		c-0.1,0-0.2,0-0.2,0l0,0c-0.2,0-0.3,0.1-0.4,0.2l0,0c-0.1,0.1-0.2,0.2-0.3,0.3c0,0,0,0,0,0c0,0,0,0,0,0C53,29.9,53,30,53,30.2
		c0,0,0,0.1,0,0.1v5.1c0,0.3,0.1,0.7,0.4,0.9c0.2,0.2,0.5,0.4,0.9,0.4c0.3,0,0.6-0.1,0.9-0.4c0.2-0.2,0.4-0.6,0.4-0.9v-2.3
		c1.6,1.9,2.5,4.3,2.5,6.8c0,0.4,0,0.8-0.1,1.1c0,0.3,0.1,0.7,0.3,0.9c0.2,0.3,0.5,0.4,0.8,0.5c0.1,0,0.1,0,0.2,0
		c0.3,0,0.6-0.1,0.8-0.3c0.2-0.2,0.4-0.5,0.4-0.8c0.1-0.5,0.1-1,0.1-1.4c0-3.1-1.1-6-3-8.4H59.1z"/>
</g>
</svg>
